<svg width="147" height="58" viewBox="0 0 147 58" fill="none" xmlns="http://www.w3.org/2000/svg">
<mask id="mask0_381_3899" style="mask-type:luminance" maskUnits="userSpaceOnUse" x="0" y="0" width="51" height="58">
<path d="M0 0H50.9599V58H0V0Z" fill="white"/>
</mask>
<g mask="url(#mask0_381_3899)">
<mask id="mask1_381_3899" style="mask-type:luminance" maskUnits="userSpaceOnUse" x="1" y="-1" width="52" height="60">
<path d="M29.3336 -0.239258L52.7661 12.1417L25.0111 58.3205L1.56445 45.9395L29.3336 -0.239258Z" fill="white"/>
</mask>
<g mask="url(#mask1_381_3899)">
<mask id="mask2_381_3899" style="mask-type:luminance" maskUnits="userSpaceOnUse" x="3" y="1" width="48" height="56">
<path d="M34.0152 2.23978L48.0917 9.67637C49.3287 10.3294 50.2529 11.4222 50.6368 12.7016C51.0207 13.9944 50.8359 15.3671 50.1392 16.5399L27.6736 53.896C26.9769 55.0555 25.811 55.9084 24.4317 56.2683C23.0667 56.6281 21.588 56.4682 20.351 55.8018L6.27443 48.3652C5.0374 47.7122 4.1274 46.6194 3.7435 45.34C3.35959 44.0472 3.53022 42.6745 4.22693 41.5017L26.6925 4.14557C27.3892 2.98611 28.5552 2.13317 29.9344 1.77333C31.2994 1.4135 32.7781 1.57343 34.0152 2.23978Z" fill="white"/>
</mask>
<g mask="url(#mask2_381_3899)">
<path d="M29.3375 -0.239258L52.77 12.1417L25.015 58.3205L1.56836 45.9395L29.3375 -0.239258Z" fill="#98BB9A"/>
</g>
</g>
</g>
<mask id="mask3_381_3899" style="mask-type:luminance" maskUnits="userSpaceOnUse" x="0" y="0" width="51" height="58">
<path d="M0 0H50.9599V58H0V0Z" fill="white"/>
</mask>
<g mask="url(#mask3_381_3899)">
<mask id="mask4_381_3899" style="mask-type:luminance" maskUnits="userSpaceOnUse" x="1" y="-1" width="52" height="60">
<path d="M29.2483 -0.17334L52.6949 12.141L25.139 58.2931L1.69238 45.9921L29.2483 -0.17334Z" fill="white"/>
</mask>
<g mask="url(#mask4_381_3899)">
<mask id="mask5_381_3899" style="mask-type:luminance" maskUnits="userSpaceOnUse" x="1" y="-1" width="52" height="60">
<path d="M29.2483 -0.17334L52.6949 12.141L25.139 58.2931L1.69238 45.9921L29.2483 -0.17334Z" fill="white"/>
</mask>
<g mask="url(#mask5_381_3899)">
<mask id="mask6_381_3899" style="mask-type:luminance" maskUnits="userSpaceOnUse" x="1" y="-1" width="52" height="60">
<path d="M29.2483 -0.17334L52.6949 12.141L25.139 58.2931L1.69238 45.9921L29.2483 -0.17334Z" fill="white"/>
</mask>
<g mask="url(#mask6_381_3899)">
<path fill-rule="evenodd" clip-rule="evenodd" d="M32.9035 1.78475C31.055 0.811861 28.6805 1.49155 27.5999 3.31737L3.99682 42.8459C2.90198 44.6584 3.5276 46.9107 5.37604 47.8836L21.4858 56.333C23.3343 57.3059 25.7088 56.6262 26.7894 54.8004L50.3925 15.2719C51.4873 13.4594 50.8617 11.2071 48.9991 10.2342L32.9035 1.78475ZM32.5622 2.78429L48.2739 11.0338C49.6389 11.7535 50.0939 13.4061 49.2977 14.7521L25.8226 54.0674C25.0263 55.4001 23.2774 55.9065 21.9124 55.1869L6.20072 46.9373C4.83573 46.2177 4.38073 44.5651 5.17698 43.2324L28.6521 3.9171C29.4483 2.57105 31.1972 2.07795 32.5622 2.78429Z" fill="black" fill-opacity="0.906"/>
</g>
</g>
</g>
</g>
<mask id="mask7_381_3899" style="mask-type:luminance" maskUnits="userSpaceOnUse" x="32" y="3" width="16" height="11">
<path d="M32.7598 3.41064H47.3197V13.6459H32.7598V3.41064Z" fill="white"/>
</mask>
<g mask="url(#mask7_381_3899)">
<mask id="mask8_381_3899" style="mask-type:luminance" maskUnits="userSpaceOnUse" x="1" y="-1" width="52" height="60">
<path d="M29.2483 -0.173828L52.6949 12.1405L25.139 58.2926L1.69238 45.9916L29.2483 -0.173828Z" fill="white"/>
</mask>
<g mask="url(#mask8_381_3899)">
<mask id="mask9_381_3899" style="mask-type:luminance" maskUnits="userSpaceOnUse" x="1" y="-1" width="52" height="60">
<path d="M29.2483 -0.17334L52.6949 12.141L25.139 58.2931L1.69238 45.9921L29.2483 -0.17334Z" fill="white"/>
</mask>
<g mask="url(#mask9_381_3899)">
<mask id="mask10_381_3899" style="mask-type:luminance" maskUnits="userSpaceOnUse" x="1" y="-1" width="52" height="60">
<path d="M29.2463 -0.172852L52.693 12.1415L25.1371 58.2936L1.69043 45.9926L29.2463 -0.172852Z" fill="white"/>
</mask>
<g mask="url(#mask10_381_3899)">
<path d="M35.8444 4.50373C35.7875 4.91687 35.0765 6.27625 35.7448 6.71604L43.0532 10.5543C43.7926 10.8475 44.6599 9.56806 45.0154 9.31485L40.4228 6.90262L35.8444 4.50373Z" fill="black" stroke="black" stroke-width="0.0104179"/>
</g>
</g>
</g>
</g>
<mask id="mask11_381_3899" style="mask-type:luminance" maskUnits="userSpaceOnUse" x="32" y="3" width="9" height="4">
<path d="M32.7598 3.41064H40.0397V6.82241H32.7598V3.41064Z" fill="white"/>
</mask>
<g mask="url(#mask11_381_3899)">
<mask id="mask12_381_3899" style="mask-type:luminance" maskUnits="userSpaceOnUse" x="1" y="-1" width="52" height="60">
<path d="M29.2483 -0.173828L52.6949 12.1405L25.139 58.2926L1.69238 45.9916L29.2483 -0.173828Z" fill="white"/>
</mask>
<g mask="url(#mask12_381_3899)">
<mask id="mask13_381_3899" style="mask-type:luminance" maskUnits="userSpaceOnUse" x="1" y="-1" width="52" height="60">
<path d="M29.2483 -0.17334L52.6949 12.141L25.139 58.2931L1.69238 45.9921L29.2483 -0.17334Z" fill="white"/>
</mask>
<g mask="url(#mask13_381_3899)">
<mask id="mask14_381_3899" style="mask-type:luminance" maskUnits="userSpaceOnUse" x="1" y="-1" width="52" height="60">
<path d="M29.2463 -0.172852L52.693 12.1415L25.1371 58.2936L1.69043 45.9926L29.2463 -0.172852Z" fill="white"/>
</mask>
<g mask="url(#mask14_381_3899)">
<path d="M36.9955 6.23774C36.8817 6.45098 36.7111 6.49096 36.4978 6.38434C36.2845 6.27772 36.2419 6.1178 36.3698 5.91789C36.4978 5.70465 36.6542 5.66467 36.8675 5.77129C37.0808 5.87791 37.1234 6.03783 36.9955 6.23774Z" fill="#173E45"/>
</g>
</g>
</g>
</g>
<mask id="mask15_381_3899" style="mask-type:luminance" maskUnits="userSpaceOnUse" x="21" y="6" width="5" height="8">
<path d="M21.8398 6.82227H25.4798V13.6458H21.8398V6.82227Z" fill="white"/>
</mask>
<g mask="url(#mask15_381_3899)">
<mask id="mask16_381_3899" style="mask-type:luminance" maskUnits="userSpaceOnUse" x="1" y="-1" width="52" height="60">
<path d="M29.2483 -0.174316L52.6949 12.14L25.139 58.2921L1.69238 45.9911L29.2483 -0.174316Z" fill="white"/>
</mask>
<g mask="url(#mask16_381_3899)">
<mask id="mask17_381_3899" style="mask-type:luminance" maskUnits="userSpaceOnUse" x="1" y="-1" width="52" height="60">
<path d="M29.2483 -0.173828L52.6949 12.1405L25.139 58.2926L1.69238 45.9916L29.2483 -0.173828Z" fill="white"/>
</mask>
<g mask="url(#mask17_381_3899)">
<mask id="mask18_381_3899" style="mask-type:luminance" maskUnits="userSpaceOnUse" x="1" y="-1" width="52" height="60">
<path d="M29.2483 -0.17334L52.6949 12.141L25.139 58.2931L1.69238 45.9921L29.2483 -0.17334Z" fill="white"/>
</mask>
<g mask="url(#mask18_381_3899)">
<path d="M23.7429 9.03662L24.0984 9.2232L23.0889 10.9291L22.7334 10.7425L23.7429 9.03662Z" fill="#272727"/>
</g>
</g>
</g>
</g>
<mask id="mask19_381_3899" style="mask-type:luminance" maskUnits="userSpaceOnUse" x="18" y="10" width="8" height="8">
<path d="M18.2012 10.2349H25.4812V17.0584H18.2012V10.2349Z" fill="white"/>
</mask>
<g mask="url(#mask19_381_3899)">
<mask id="mask20_381_3899" style="mask-type:luminance" maskUnits="userSpaceOnUse" x="1" y="-1" width="52" height="60">
<path d="M29.2483 -0.174316L52.6949 12.14L25.139 58.2921L1.69238 45.9911L29.2483 -0.174316Z" fill="white"/>
</mask>
<g mask="url(#mask20_381_3899)">
<mask id="mask21_381_3899" style="mask-type:luminance" maskUnits="userSpaceOnUse" x="1" y="-1" width="52" height="60">
<path d="M29.2483 -0.173828L52.6949 12.1405L25.139 58.2926L1.69238 45.9916L29.2483 -0.173828Z" fill="white"/>
</mask>
<g mask="url(#mask21_381_3899)">
<mask id="mask22_381_3899" style="mask-type:luminance" maskUnits="userSpaceOnUse" x="1" y="-1" width="52" height="60">
<path d="M29.2483 -0.17334L52.6949 12.141L25.139 58.2931L1.69238 45.9921L29.2483 -0.17334Z" fill="white"/>
</mask>
<g mask="url(#mask22_381_3899)">
<path d="M21.8114 12.2739L22.1669 12.4605L20.0625 15.9922L19.707 15.8056L21.8114 12.2739Z" fill="#272727"/>
</g>
</g>
</g>
</g>
<mask id="mask23_381_3899" style="mask-type:luminance" maskUnits="userSpaceOnUse" x="14" y="13" width="8" height="8">
<path d="M14.5625 13.646H21.8425V20.4695H14.5625V13.646Z" fill="white"/>
</mask>
<g mask="url(#mask23_381_3899)">
<mask id="mask24_381_3899" style="mask-type:luminance" maskUnits="userSpaceOnUse" x="1" y="-1" width="52" height="60">
<path d="M29.2483 -0.174316L52.6949 12.14L25.139 58.2921L1.69238 45.9911L29.2483 -0.174316Z" fill="white"/>
</mask>
<g mask="url(#mask24_381_3899)">
<mask id="mask25_381_3899" style="mask-type:luminance" maskUnits="userSpaceOnUse" x="1" y="-1" width="52" height="60">
<path d="M29.2483 -0.173828L52.6949 12.1405L25.139 58.2926L1.69238 45.9916L29.2483 -0.173828Z" fill="white"/>
</mask>
<g mask="url(#mask25_381_3899)">
<mask id="mask26_381_3899" style="mask-type:luminance" maskUnits="userSpaceOnUse" x="1" y="-1" width="52" height="60">
<path d="M29.2483 -0.17334L52.6949 12.141L25.139 58.2931L1.69238 45.9921L29.2483 -0.17334Z" fill="white"/>
</mask>
<g mask="url(#mask26_381_3899)">
<path d="M19.1818 16.6724L19.5373 16.8589L17.4756 20.324L17.1201 20.1374L19.1818 16.6724Z" fill="#272727"/>
</g>
</g>
</g>
</g>
<mask id="mask27_381_3899" style="mask-type:luminance" maskUnits="userSpaceOnUse" x="40" y="23" width="8" height="12">
<path d="M40.041 23.8818H47.321V34.1171H40.041V23.8818Z" fill="white"/>
</mask>
<g mask="url(#mask27_381_3899)">
<mask id="mask28_381_3899" style="mask-type:luminance" maskUnits="userSpaceOnUse" x="1" y="-1" width="52" height="60">
<path d="M29.2483 -0.17334L52.6949 12.141L25.139 58.2931L1.69238 45.9921L29.2483 -0.17334Z" fill="white"/>
</mask>
<g mask="url(#mask28_381_3899)">
<mask id="mask29_381_3899" style="mask-type:luminance" maskUnits="userSpaceOnUse" x="1" y="-1" width="52" height="60">
<path d="M29.2483 -0.17334L52.6949 12.141L25.139 58.2931L1.69238 45.9921L29.2483 -0.17334Z" fill="white"/>
</mask>
<g mask="url(#mask29_381_3899)">
<mask id="mask30_381_3899" style="mask-type:luminance" maskUnits="userSpaceOnUse" x="1" y="-1" width="52" height="60">
<path d="M29.2483 -0.17334L52.6949 12.141L25.139 58.2931L1.69238 45.9921L29.2483 -0.17334Z" fill="white"/>
</mask>
<g mask="url(#mask30_381_3899)">
<path d="M44.1938 25.6011L44.5493 25.7877L41.2363 31.3451L40.8809 31.1585L44.1938 25.6011Z" fill="#272727"/>
</g>
</g>
</g>
</g>
<path d="M10.2959 47.1382L20.4196 52.4557" stroke="black" stroke-width="0.984376" stroke-linecap="round"/>
<mask id="mask31_381_3899" style="mask-type:luminance" maskUnits="userSpaceOnUse" x="0" y="0" width="51" height="58">
<path d="M0 0H50.9599V58H0V0Z" fill="white"/>
</mask>
<g mask="url(#mask31_381_3899)">
<mask id="mask32_381_3899" style="mask-type:luminance" maskUnits="userSpaceOnUse" x="1" y="-1" width="52" height="60">
<path d="M29.2483 -0.17334L52.6949 12.141L25.139 58.2931L1.69238 45.9921L29.2483 -0.17334Z" fill="white"/>
</mask>
<g mask="url(#mask32_381_3899)">
<mask id="mask33_381_3899" style="mask-type:luminance" maskUnits="userSpaceOnUse" x="1" y="-1" width="52" height="60">
<path d="M29.2483 -0.17334L52.6949 12.141L25.139 58.2931L1.69238 45.9921L29.2483 -0.17334Z" fill="white"/>
</mask>
<g mask="url(#mask33_381_3899)">
<mask id="mask34_381_3899" style="mask-type:luminance" maskUnits="userSpaceOnUse" x="1" y="-1" width="52" height="60">
<path d="M29.2483 -0.17334L52.6949 12.141L25.139 58.2931L1.69238 45.9921L29.2483 -0.17334Z" fill="white"/>
</mask>
<g mask="url(#mask34_381_3899)">
<path fill-rule="evenodd" clip-rule="evenodd" d="M32.9035 1.78475C31.055 0.811861 28.6805 1.49155 27.5999 3.31737L3.99682 42.8459C2.90198 44.6584 3.5276 46.9107 5.37604 47.8836L21.4858 56.333C23.3343 57.3059 25.7088 56.6262 26.7894 54.8004L50.3925 15.2719C51.4873 13.4594 50.8617 11.2071 48.9991 10.2342L32.9035 1.78475ZM32.5622 2.78429L48.2739 11.0338C49.6389 11.7535 50.0939 13.4061 49.2977 14.7521L25.8226 54.0674C25.0263 55.4001 23.2774 55.9065 21.9124 55.1869L6.20072 46.9373C4.83573 46.2177 4.38073 44.5651 5.17698 43.2324L28.6521 3.9171C29.4483 2.57105 31.1972 2.07795 32.5622 2.78429Z" fill="black" fill-opacity="0.906"/>
</g>
</g>
</g>
</g>
<mask id="mask35_381_3899" style="mask-type:luminance" maskUnits="userSpaceOnUse" x="32" y="3" width="16" height="11">
<path d="M32.7598 3.41064H47.3197V13.6459H32.7598V3.41064Z" fill="white"/>
</mask>
<g mask="url(#mask35_381_3899)">
<mask id="mask36_381_3899" style="mask-type:luminance" maskUnits="userSpaceOnUse" x="1" y="-1" width="52" height="60">
<path d="M29.2483 -0.173828L52.6949 12.1405L25.139 58.2926L1.69238 45.9916L29.2483 -0.173828Z" fill="white"/>
</mask>
<g mask="url(#mask36_381_3899)">
<mask id="mask37_381_3899" style="mask-type:luminance" maskUnits="userSpaceOnUse" x="1" y="-1" width="52" height="60">
<path d="M29.2483 -0.17334L52.6949 12.141L25.139 58.2931L1.69238 45.9921L29.2483 -0.17334Z" fill="white"/>
</mask>
<g mask="url(#mask37_381_3899)">
<mask id="mask38_381_3899" style="mask-type:luminance" maskUnits="userSpaceOnUse" x="1" y="-1" width="52" height="60">
<path d="M29.2463 -0.172852L52.693 12.1415L25.1371 58.2936L1.69043 45.9926L29.2463 -0.172852Z" fill="white"/>
</mask>
<g mask="url(#mask38_381_3899)">
<path d="M35.8444 4.50373C35.7875 4.91687 35.0765 6.27625 35.7448 6.71604L43.0532 10.5543C43.7926 10.8475 44.6599 9.56806 45.0154 9.31485L40.4228 6.90262L35.8444 4.50373Z" fill="black" stroke="black" stroke-width="0.0104179"/>
</g>
</g>
</g>
</g>
<mask id="mask39_381_3899" style="mask-type:luminance" maskUnits="userSpaceOnUse" x="32" y="3" width="9" height="4">
<path d="M32.7598 3.41064H40.0397V6.82241H32.7598V3.41064Z" fill="white"/>
</mask>
<g mask="url(#mask39_381_3899)">
<mask id="mask40_381_3899" style="mask-type:luminance" maskUnits="userSpaceOnUse" x="1" y="-1" width="52" height="60">
<path d="M29.2483 -0.173828L52.6949 12.1405L25.139 58.2926L1.69238 45.9916L29.2483 -0.173828Z" fill="white"/>
</mask>
<g mask="url(#mask40_381_3899)">
<mask id="mask41_381_3899" style="mask-type:luminance" maskUnits="userSpaceOnUse" x="1" y="-1" width="52" height="60">
<path d="M29.2483 -0.17334L52.6949 12.141L25.139 58.2931L1.69238 45.9921L29.2483 -0.17334Z" fill="white"/>
</mask>
<g mask="url(#mask41_381_3899)">
<mask id="mask42_381_3899" style="mask-type:luminance" maskUnits="userSpaceOnUse" x="1" y="-1" width="52" height="60">
<path d="M29.2463 -0.172852L52.693 12.1415L25.1371 58.2936L1.69043 45.9926L29.2463 -0.172852Z" fill="white"/>
</mask>
<g mask="url(#mask42_381_3899)">
<path d="M36.9955 6.23774C36.8817 6.45098 36.7111 6.49096 36.4978 6.38434C36.2845 6.27772 36.2419 6.1178 36.3698 5.91789C36.4978 5.70465 36.6542 5.66467 36.8675 5.77129C37.0808 5.87791 37.1234 6.03783 36.9955 6.23774Z" fill="#173E45"/>
</g>
</g>
</g>
</g>
<mask id="mask43_381_3899" style="mask-type:luminance" maskUnits="userSpaceOnUse" x="21" y="6" width="5" height="8">
<path d="M21.8398 6.82227H25.4798V13.6458H21.8398V6.82227Z" fill="white"/>
</mask>
<g mask="url(#mask43_381_3899)">
<mask id="mask44_381_3899" style="mask-type:luminance" maskUnits="userSpaceOnUse" x="1" y="-1" width="52" height="60">
<path d="M29.2483 -0.174316L52.6949 12.14L25.139 58.2921L1.69238 45.9911L29.2483 -0.174316Z" fill="white"/>
</mask>
<g mask="url(#mask44_381_3899)">
<mask id="mask45_381_3899" style="mask-type:luminance" maskUnits="userSpaceOnUse" x="1" y="-1" width="52" height="60">
<path d="M29.2483 -0.173828L52.6949 12.1405L25.139 58.2926L1.69238 45.9916L29.2483 -0.173828Z" fill="white"/>
</mask>
<g mask="url(#mask45_381_3899)">
<mask id="mask46_381_3899" style="mask-type:luminance" maskUnits="userSpaceOnUse" x="1" y="-1" width="52" height="60">
<path d="M29.2483 -0.17334L52.6949 12.141L25.139 58.2931L1.69238 45.9921L29.2483 -0.17334Z" fill="white"/>
</mask>
<g mask="url(#mask46_381_3899)">
<path d="M23.7429 9.03662L24.0984 9.2232L23.0889 10.9291L22.7334 10.7425L23.7429 9.03662Z" fill="#272727"/>
</g>
</g>
</g>
</g>
<mask id="mask47_381_3899" style="mask-type:luminance" maskUnits="userSpaceOnUse" x="18" y="10" width="8" height="8">
<path d="M18.2012 10.2349H25.4812V17.0584H18.2012V10.2349Z" fill="white"/>
</mask>
<g mask="url(#mask47_381_3899)">
<mask id="mask48_381_3899" style="mask-type:luminance" maskUnits="userSpaceOnUse" x="1" y="-1" width="52" height="60">
<path d="M29.2483 -0.174316L52.6949 12.14L25.139 58.2921L1.69238 45.9911L29.2483 -0.174316Z" fill="white"/>
</mask>
<g mask="url(#mask48_381_3899)">
<mask id="mask49_381_3899" style="mask-type:luminance" maskUnits="userSpaceOnUse" x="1" y="-1" width="52" height="60">
<path d="M29.2483 -0.173828L52.6949 12.1405L25.139 58.2926L1.69238 45.9916L29.2483 -0.173828Z" fill="white"/>
</mask>
<g mask="url(#mask49_381_3899)">
<mask id="mask50_381_3899" style="mask-type:luminance" maskUnits="userSpaceOnUse" x="1" y="-1" width="52" height="60">
<path d="M29.2483 -0.17334L52.6949 12.141L25.139 58.2931L1.69238 45.9921L29.2483 -0.17334Z" fill="white"/>
</mask>
<g mask="url(#mask50_381_3899)">
<path d="M21.8114 12.2739L22.1669 12.4605L20.0625 15.9922L19.707 15.8056L21.8114 12.2739Z" fill="#272727"/>
</g>
</g>
</g>
</g>
<mask id="mask51_381_3899" style="mask-type:luminance" maskUnits="userSpaceOnUse" x="14" y="13" width="8" height="8">
<path d="M14.5625 13.646H21.8425V20.4695H14.5625V13.646Z" fill="white"/>
</mask>
<g mask="url(#mask51_381_3899)">
<mask id="mask52_381_3899" style="mask-type:luminance" maskUnits="userSpaceOnUse" x="1" y="-1" width="52" height="60">
<path d="M29.2483 -0.174316L52.6949 12.14L25.139 58.2921L1.69238 45.9911L29.2483 -0.174316Z" fill="white"/>
</mask>
<g mask="url(#mask52_381_3899)">
<mask id="mask53_381_3899" style="mask-type:luminance" maskUnits="userSpaceOnUse" x="1" y="-1" width="52" height="60">
<path d="M29.2483 -0.173828L52.6949 12.1405L25.139 58.2926L1.69238 45.9916L29.2483 -0.173828Z" fill="white"/>
</mask>
<g mask="url(#mask53_381_3899)">
<mask id="mask54_381_3899" style="mask-type:luminance" maskUnits="userSpaceOnUse" x="1" y="-1" width="52" height="60">
<path d="M29.2483 -0.17334L52.6949 12.141L25.139 58.2931L1.69238 45.9921L29.2483 -0.17334Z" fill="white"/>
</mask>
<g mask="url(#mask54_381_3899)">
<path d="M19.1818 16.6724L19.5373 16.8589L17.4756 20.324L17.1201 20.1374L19.1818 16.6724Z" fill="#272727"/>
</g>
</g>
</g>
</g>
<mask id="mask55_381_3899" style="mask-type:luminance" maskUnits="userSpaceOnUse" x="40" y="23" width="8" height="12">
<path d="M40.041 23.8818H47.321V34.1171H40.041V23.8818Z" fill="white"/>
</mask>
<g mask="url(#mask55_381_3899)">
<mask id="mask56_381_3899" style="mask-type:luminance" maskUnits="userSpaceOnUse" x="1" y="-1" width="52" height="60">
<path d="M29.2483 -0.17334L52.6949 12.141L25.139 58.2931L1.69238 45.9921L29.2483 -0.17334Z" fill="white"/>
</mask>
<g mask="url(#mask56_381_3899)">
<mask id="mask57_381_3899" style="mask-type:luminance" maskUnits="userSpaceOnUse" x="1" y="-1" width="52" height="60">
<path d="M29.2483 -0.17334L52.6949 12.141L25.139 58.2931L1.69238 45.9921L29.2483 -0.17334Z" fill="white"/>
</mask>
<g mask="url(#mask57_381_3899)">
<mask id="mask58_381_3899" style="mask-type:luminance" maskUnits="userSpaceOnUse" x="1" y="-1" width="52" height="60">
<path d="M29.2483 -0.17334L52.6949 12.141L25.139 58.2931L1.69238 45.9921L29.2483 -0.17334Z" fill="white"/>
</mask>
<g mask="url(#mask58_381_3899)">
<path d="M44.1938 25.6011L44.5493 25.7877L41.2363 31.3451L40.8809 31.1585L44.1938 25.6011Z" fill="#272727"/>
</g>
</g>
</g>
</g>
<mask id="mask59_381_3899" style="mask-type:luminance" maskUnits="userSpaceOnUse" x="10" y="13" width="34" height="32">
<path d="M10.9199 13.6455H43.6799V44.3514H10.9199V13.6455Z" fill="white"/>
</mask>
<g mask="url(#mask59_381_3899)">
<mask id="mask60_381_3899" style="mask-type:luminance" maskUnits="userSpaceOnUse" x="6" y="9" width="43" height="40">
<path d="M21.8811 9.62109L48.4701 23.5747L33.5831 48.4966L6.99414 34.543L21.8811 9.62109Z" fill="white"/>
</mask>
<g mask="url(#mask60_381_3899)">
<mask id="mask61_381_3899" style="mask-type:luminance" maskUnits="userSpaceOnUse" x="12" y="14" width="31" height="30">
<path d="M35.1745 16.5897C27.8234 12.7381 18.5386 15.1904 14.4294 22.0805C10.3202 28.9574 12.9364 37.6733 20.2875 41.5249C27.6243 45.3765 36.9092 42.9109 41.0326 36.0341C45.1418 29.1439 42.5113 20.4413 35.1745 16.5897Z" fill="white"/>
</mask>
<g mask="url(#mask61_381_3899)">
<path d="M21.8802 9.62061L48.4692 23.5742L33.5822 48.4961L6.99316 34.5425L21.8802 9.62061Z" fill="#FFF8DC"/>
</g>
</g>
</g>
<mask id="mask62_381_3899" style="mask-type:luminance" maskUnits="userSpaceOnUse" x="10" y="13" width="34" height="32">
<path d="M10.9199 13.6455H43.6799V44.3514H10.9199V13.6455Z" fill="white"/>
</mask>
<g mask="url(#mask62_381_3899)">
<mask id="mask63_381_3899" style="mask-type:luminance" maskUnits="userSpaceOnUse" x="7" y="9" width="41" height="39">
<path d="M21.8808 9.62109L47.6735 23.1482L33.2273 47.3238L7.43457 33.7966L21.8808 9.62109Z" fill="white"/>
</mask>
<g mask="url(#mask63_381_3899)">
<mask id="mask64_381_3899" style="mask-type:luminance" maskUnits="userSpaceOnUse" x="7" y="9" width="42" height="40">
<path d="M21.8816 9.62012L48.4421 23.5471L33.5694 48.4556L7.00879 34.5153L21.8816 9.62012Z" fill="white"/>
</mask>
<g mask="url(#mask64_381_3899)">
<mask id="mask65_381_3899" style="mask-type:luminance" maskUnits="userSpaceOnUse" x="12" y="14" width="31" height="30">
<path d="M35.1602 16.5897C27.8233 12.7381 18.5385 15.1903 14.4435 22.0671C10.3343 28.944 12.9505 37.6333 20.2874 41.4849C27.6243 45.3364 36.8949 42.8709 41.0041 36.0074C45.1133 29.1306 42.497 20.4279 35.1602 16.5897Z" fill="white"/>
</mask>
<g mask="url(#mask65_381_3899)">
<path d="M35.1613 16.5902C27.8245 12.7386 18.5396 15.1908 14.4446 22.0676C10.3354 28.9445 12.9517 37.6338 20.2885 41.4854C27.6254 45.337 36.896 42.8714 41.0052 36.0079C45.1144 29.1311 42.4982 20.4284 35.1613 16.5902Z" stroke="#98BB9A" stroke-width="0.984376"/>
</g>
</g>
</g>
</g>
<mask id="mask66_381_3899" style="mask-type:luminance" maskUnits="userSpaceOnUse" x="29" y="27" width="12" height="11">
<path d="M29.1211 27.293H40.0411V37.5283H29.1211V27.293Z" fill="white"/>
</mask>
<g mask="url(#mask66_381_3899)">
<mask id="mask67_381_3899" style="mask-type:luminance" maskUnits="userSpaceOnUse" x="14" y="18" width="28" height="21">
<path d="M20.0959 18.8174L41.1965 29.879L35.9498 38.6749L14.835 27.6L20.0959 18.8174Z" fill="white"/>
</mask>
<g mask="url(#mask67_381_3899)">
<mask id="mask68_381_3899" style="mask-type:luminance" maskUnits="userSpaceOnUse" x="14" y="18" width="28" height="21">
<path d="M20.0969 18.8174L41.1974 29.879L35.9507 38.6749L14.8359 27.6L20.0969 18.8174Z" fill="white"/>
</mask>
<g mask="url(#mask68_381_3899)">
<mask id="mask69_381_3899" style="mask-type:luminance" maskUnits="userSpaceOnUse" x="14" y="18" width="28" height="21">
<path d="M20.0978 18.8174L41.1984 29.879L35.9517 38.6749L14.8369 27.6L20.0978 18.8174Z" fill="white"/>
</mask>
<g mask="url(#mask69_381_3899)">
<path d="M33.4057 30.1326C33.3772 30.1459 33.3346 30.1592 33.3062 30.1726C32.9222 30.3858 32.5241 30.5724 32.0976 30.719C31.8985 30.799 31.6994 30.8523 31.4862 30.8922C31.0312 30.9722 30.6615 30.8256 30.3487 30.5058C30.2491 30.4125 30.178 30.2925 30.1354 30.1592C30.0501 29.906 30.0358 29.6528 30.0927 29.3996C30.1354 29.1464 30.2207 28.9198 30.3487 28.7066C30.3771 28.6533 30.4198 28.6133 30.3487 28.5333C30.4624 28.5333 30.5051 28.48 30.5477 28.4267C30.7752 28.1735 31.0312 27.9603 31.3297 27.787C31.6283 27.6004 31.9412 27.5871 32.2824 27.707C32.5526 27.787 32.7943 27.9203 32.9933 28.1202C33.2066 28.3467 33.2351 28.6266 33.0787 28.8665C32.9791 28.9998 32.8654 29.1197 32.7232 29.213C32.5099 29.3596 32.2682 29.3996 32.0122 29.3863C31.6994 29.3596 31.4151 29.2796 31.1449 29.1464C31.1165 29.133 31.1023 29.133 31.0738 29.1197C31.0596 29.1064 31.0596 29.1197 31.0312 29.1197C30.9885 29.213 30.9316 29.3196 30.889 29.4262C30.7752 29.7194 30.7183 30.026 30.7468 30.3458C30.7752 30.5724 30.7752 30.599 31.0596 30.5857C31.2018 30.5857 31.3582 30.5591 31.5146 30.5191C31.9127 30.4258 32.2824 30.2659 32.6379 30.0926C33.1497 29.8394 33.6474 29.5862 34.1451 29.3196C34.2304 29.2796 34.3015 29.2263 34.3726 29.173C34.5147 29.0797 34.6001 29.0664 34.7707 29.1597C34.7991 29.1864 34.8418 29.213 34.8702 29.2263C35.0124 29.333 35.0408 29.4396 34.9555 29.5728C34.8844 29.6928 34.7991 29.8261 34.7138 29.9327C34.4863 30.2525 34.2588 30.5591 34.0313 30.8656C33.7469 31.2387 33.491 31.6386 33.3204 32.0784C33.2635 32.2383 33.2351 32.3982 33.1924 32.5715C33.1782 32.5981 33.1782 32.6381 33.1782 32.6914C33.2493 32.6648 33.3204 32.6514 33.3915 32.6248C33.6474 32.5315 33.8749 32.3982 34.0882 32.2649C34.6143 31.9318 35.0835 31.5586 35.5527 31.1721C35.7233 31.0255 35.8655 30.8523 36.0219 30.6923C36.1499 30.5591 36.2779 30.4125 36.42 30.2792C36.5338 30.1726 36.6333 30.1592 36.7897 30.2392C36.875 30.2925 36.9604 30.3458 37.0315 30.4125C37.1168 30.4791 37.1168 30.5591 37.0599 30.6524C36.4769 31.5453 35.7091 32.5715 35.5243 33.6776C35.4247 34.344 35.8086 34.4373 36.349 34.1441C36.6333 33.9975 36.875 33.8109 37.0883 33.5977C37.4722 33.2112 37.8135 32.798 38.0836 32.3316C38.2969 31.9451 38.5671 30.2259 39.3918 31.2521C39.4486 31.332 39.4629 31.412 39.4486 31.5053C39.4344 31.6386 39.3918 31.7585 39.3349 31.8785C38.7946 32.798 36.6902 35.5568 35.2115 34.3973C34.9555 34.1974 34.8133 33.9308 34.7707 33.6376C34.7138 33.2645 34.7707 32.9046 34.856 32.5448C34.8844 32.4249 34.9271 32.3049 34.9697 32.1717C34.9413 32.1983 34.9129 32.2116 34.8844 32.2383C34.6143 32.4249 34.3583 32.6248 34.074 32.798C33.946 32.8913 33.7896 32.9713 33.6332 33.0246C33.1782 33.1978 32.6521 32.9313 32.5241 32.4915C32.4672 32.2516 32.4815 32.0251 32.5241 31.7985C32.581 31.4653 32.7232 31.1588 32.8938 30.8656C33.036 30.6124 33.2208 30.3725 33.4057 30.1326ZM31.1733 28.9198C31.3724 28.9998 31.5715 29.0398 31.7705 29.0264C31.9269 29.0264 32.0691 28.9865 32.1829 28.8932C32.3108 28.8132 32.4246 28.6933 32.4957 28.5733C32.5526 28.4667 32.581 28.3467 32.5526 28.2268C32.5383 28.1735 32.5241 28.1468 32.4672 28.1468C32.3251 28.1202 32.2113 28.1335 32.0976 28.1868C31.8558 28.3068 31.6283 28.4667 31.4293 28.6533C31.344 28.7332 31.2587 28.8265 31.1733 28.9198Z" fill="#EFB54F"/>
</g>
</g>
</g>
</g>
<mask id="mask70_381_3899" style="mask-type:luminance" maskUnits="userSpaceOnUse" x="14" y="17" width="16" height="18">
<path d="M14.5625 17.0581H29.1225V34.1169H14.5625V17.0581Z" fill="white"/>
</mask>
<g mask="url(#mask70_381_3899)">
<mask id="mask71_381_3899" style="mask-type:luminance" maskUnits="userSpaceOnUse" x="14" y="18" width="28" height="21">
<path d="M20.0969 18.8174L41.1974 29.879L35.9507 38.6749L14.8359 27.6L20.0969 18.8174Z" fill="white"/>
</mask>
<g mask="url(#mask71_381_3899)">
<mask id="mask72_381_3899" style="mask-type:luminance" maskUnits="userSpaceOnUse" x="14" y="18" width="28" height="21">
<path d="M20.0978 18.8174L41.1984 29.879L35.9517 38.6749L14.8369 27.6L20.0978 18.8174Z" fill="white"/>
</mask>
<g mask="url(#mask72_381_3899)">
<mask id="mask73_381_3899" style="mask-type:luminance" maskUnits="userSpaceOnUse" x="14" y="18" width="28" height="21">
<path d="M20.0988 18.8174L41.1994 29.879L35.9527 38.6749L14.8379 27.6L20.0988 18.8174Z" fill="white"/>
</mask>
<g mask="url(#mask73_381_3899)">
<path d="M20.1578 24.3082C20.3995 24.9879 20.5843 25.6676 20.7976 26.3339C21.1815 27.6266 21.7076 28.8794 22.4043 30.0789C22.7314 30.6519 23.1437 31.185 23.684 31.6248C23.9399 31.8514 24.2243 32.038 24.5798 32.1312C24.722 32.1579 24.8784 32.1846 25.0348 32.1712C25.3903 32.1712 25.6888 31.9313 25.7599 31.6248C25.7742 31.5582 25.7742 31.4915 25.7457 31.4249C25.7173 31.3982 25.7031 31.3583 25.7031 31.3316C25.6462 31.1317 25.7315 31.0251 25.9448 31.0384C26.0301 31.0384 26.1154 31.0651 26.2007 31.0784C26.5135 31.1717 26.7695 31.3449 26.9828 31.5715C27.2103 31.838 27.2102 32.0513 27.0112 32.3045C26.8832 32.4378 26.741 32.5444 26.5562 32.6244C26.2149 32.771 25.8453 32.8243 25.4471 32.7976C24.9779 32.7576 24.5371 32.6244 24.1106 32.4244C22.8878 31.8247 22.0062 30.9185 21.3664 29.8123C20.9114 28.9994 20.5701 28.1464 20.3142 27.2668C20.172 26.7604 20.0582 26.2673 19.9729 25.7608C19.8876 25.3477 19.8165 24.9346 19.7312 24.5214C19.7312 24.4948 19.717 24.4681 19.717 24.4281C19.6032 24.4548 19.4895 24.4681 19.39 24.4814C19.3189 24.4814 19.3189 24.5347 19.3046 24.5747C19.2193 24.748 19.1625 24.9346 19.0771 25.1078C18.8923 25.5076 18.7075 25.9074 18.5084 26.3206C18.4231 26.4672 18.3662 26.4938 18.1671 26.4405C18.0107 26.3872 17.8828 26.3206 17.7548 26.214C17.6553 26.1207 17.6126 26.0141 17.6411 25.8941C17.7264 25.6276 17.7975 25.3477 17.8828 25.0678C17.9681 24.8279 18.0534 24.5747 18.1529 24.3348C18.1529 24.3082 18.1529 24.2815 18.1671 24.2682C18.025 24.1616 17.8828 24.0816 17.769 23.975C17.5273 23.7618 17.4136 23.5085 17.4989 23.2287C17.5131 23.1487 17.5557 23.0687 17.5984 23.0021C17.6695 22.8688 17.8117 22.8022 17.9681 22.7755C18.224 22.7489 18.4515 22.7889 18.7075 22.9088C18.7501 22.8155 18.7928 22.7222 18.8354 22.6289C19.1625 21.8027 19.4895 20.9764 19.8307 20.1501C19.8876 20.0168 19.9445 19.8835 20.0156 19.7503C20.0725 19.6303 20.1293 19.617 20.2715 19.657C20.4706 19.7103 20.5985 19.8436 20.5985 20.0301C20.5985 20.1901 20.5843 20.35 20.5559 20.5099C20.5132 20.7498 20.4564 20.9897 20.4137 21.2296C20.3995 21.2696 20.3995 21.3096 20.4137 21.3629C20.4564 21.2962 20.5132 21.2429 20.5701 21.1896C20.8545 20.8964 21.1815 20.6165 21.5654 20.4033C21.7218 20.3233 21.8925 20.2434 22.0631 20.1901C22.4185 20.0968 22.7314 20.2034 23.0157 20.43C23.1864 20.5632 23.2574 20.7498 23.2574 20.9497C23.2574 21.1896 23.2148 21.4162 23.1153 21.6427C22.9731 22.0159 22.7456 22.3357 22.4896 22.6423C22.12 23.0954 21.6792 23.4952 21.1673 23.8151C20.8687 24.0016 20.5559 24.1616 20.2146 24.2815C20.2004 24.2948 20.172 24.2948 20.1578 24.3082ZM19.6885 23.6285C19.7454 23.6018 19.8023 23.5752 19.845 23.5619C20.8545 23.0687 21.6507 22.3891 22.2764 21.5361C22.447 21.2962 22.5749 21.0297 22.6318 20.7365C22.6318 20.6698 22.6318 20.6032 22.646 20.5232C22.4043 20.5632 22.2195 20.6432 22.0489 20.7498C21.6081 21.0164 21.2242 21.3362 20.9114 21.7227C20.6412 22.0426 20.3995 22.3891 20.1578 22.7222C20.0156 22.9355 19.8876 23.162 19.7596 23.3886C19.717 23.4552 19.6885 23.5219 19.6885 23.6285ZM18.2951 23.9217C18.3946 23.6551 18.5084 23.3886 18.6079 23.1221C18.2951 23.1087 18.1387 23.2287 18.0961 23.5085C18.0676 23.6951 18.1529 23.8817 18.2951 23.9217Z" fill="#EFB54F"/>
</g>
</g>
</g>
</g>
<mask id="mask74_381_3899" style="mask-type:luminance" maskUnits="userSpaceOnUse" x="18" y="20" width="15" height="11">
<path d="M18.2012 20.4707H32.7611V30.706H18.2012V20.4707Z" fill="white"/>
</mask>
<g mask="url(#mask74_381_3899)">
<mask id="mask75_381_3899" style="mask-type:luminance" maskUnits="userSpaceOnUse" x="14" y="18" width="28" height="21">
<path d="M20.0959 18.8174L41.1965 29.879L35.9498 38.6749L14.835 27.6L20.0959 18.8174Z" fill="white"/>
</mask>
<g mask="url(#mask75_381_3899)">
<mask id="mask76_381_3899" style="mask-type:luminance" maskUnits="userSpaceOnUse" x="14" y="18" width="28" height="21">
<path d="M20.0969 18.8174L41.1974 29.879L35.9507 38.6749L14.8359 27.6L20.0969 18.8174Z" fill="white"/>
</mask>
<g mask="url(#mask76_381_3899)">
<mask id="mask77_381_3899" style="mask-type:luminance" maskUnits="userSpaceOnUse" x="14" y="18" width="28" height="21">
<path d="M20.0978 18.8174L41.1984 29.879L35.9517 38.6749L14.8369 27.6L20.0978 18.8174Z" fill="white"/>
</mask>
<g mask="url(#mask77_381_3899)">
<path d="M29.4944 26.6002C29.0821 26.7202 28.6698 26.8268 28.2148 26.8002C28.2005 26.9068 28.1863 27.0134 28.1579 27.12C28.1294 27.3199 28.0441 27.5198 27.9446 27.6931C27.7455 28.0529 27.5323 28.3861 27.2337 28.6793C27.0773 28.8525 26.9066 28.9858 26.6933 29.1058C26.3805 29.2923 26.0393 29.279 25.6696 29.1058C25.1435 28.8525 24.8734 28.4661 24.8165 27.9463C24.788 27.6264 24.8307 27.3199 24.916 27.0134C24.9871 26.6802 25.1293 26.3737 25.2715 26.0672C25.3426 25.9339 25.3994 25.8006 25.4563 25.654C25.3994 25.654 25.3568 25.694 25.3284 25.7073C25.0724 25.8939 24.8165 26.0938 24.5463 26.2804C24.3046 26.4536 24.0629 26.6136 23.8069 26.7735C23.7216 26.8401 23.6363 26.8801 23.5368 26.9201C23.3235 27.0134 23.1102 27.0134 22.8969 26.9334C22.4704 26.7868 22.1718 26.5336 22.0438 26.1338C21.9443 25.8139 21.9727 25.5074 22.0723 25.2009C22.0723 25.1742 22.0865 25.1609 22.0865 25.1343C21.9585 25.041 21.7737 24.9877 21.7168 24.8144C21.8874 24.7611 22.0154 24.8944 22.1576 24.9343C22.186 24.8944 22.2002 24.8677 22.2144 24.8277C22.3424 24.5745 22.5273 24.3479 22.7263 24.1347C23.2951 23.575 24.0344 23.6683 24.5605 23.9481C24.7738 24.0548 24.9444 24.2013 25.0582 24.4013C25.1719 24.6145 25.1577 24.8144 24.9871 24.9877C24.916 25.0676 24.8307 25.1343 24.7454 25.2009C24.6032 25.2942 24.4326 25.3475 24.2619 25.4008C23.878 25.4941 23.4941 25.5207 23.096 25.4674C23.0676 25.4674 23.0391 25.4541 23.0107 25.4541C23.0107 25.4541 23.0107 25.4541 22.9823 25.4674C22.8827 25.8406 22.8116 26.2138 22.9538 26.6136C23.0534 26.6269 23.1387 26.6002 23.224 26.5736C23.3804 26.507 23.551 26.4536 23.7074 26.3737C24.0344 26.2004 24.333 25.9872 24.6316 25.774C24.8449 25.6274 25.0582 25.4941 25.2573 25.3475C25.2999 25.3208 25.3426 25.2942 25.3852 25.2675C25.6554 25.1209 25.9824 25.2142 26.1388 25.4808C26.2099 25.5874 26.2383 25.694 26.2383 25.8006C26.2526 26.0938 26.2099 26.3604 26.1388 26.6269C26.0393 27.0934 25.9255 27.5598 25.8118 28.0396C25.7833 28.1995 25.7691 28.3728 25.7691 28.5327C25.7691 28.6526 25.7976 28.7726 25.8829 28.8925C25.9824 28.9059 26.0819 28.9059 26.1815 28.8792C26.3805 28.8259 26.5512 28.7326 26.7076 28.626C26.9208 28.4794 27.1057 28.2928 27.2479 28.0796C27.4612 27.813 27.6318 27.5198 27.7313 27.2C27.774 27.0534 27.7882 26.8934 27.8308 26.7468C27.774 26.7202 27.7313 26.7069 27.6887 26.6935C27.4185 26.5869 27.191 26.427 27.063 26.1871C26.9919 26.0805 26.9635 25.9739 26.9777 25.8673C26.9919 25.7073 27.0773 25.6407 27.2621 25.654C27.4896 25.6807 27.6744 25.7606 27.8308 25.9072C27.9873 26.0405 28.101 26.2138 28.1579 26.4003C28.1721 26.4403 28.1721 26.467 28.1863 26.5203C28.3285 26.4936 28.4707 26.4803 28.6129 26.4403C28.8262 26.387 29.0394 26.3204 29.2527 26.2671C29.3665 26.2271 29.4944 26.2004 29.6082 26.1604C29.8357 26.1071 30.1343 26.2671 30.2338 26.387C30.2907 26.4803 30.3049 26.5736 30.2907 26.6536C30.2622 26.7868 30.2338 26.9201 30.1912 27.0534C30.049 27.3999 29.9068 27.7597 29.7362 28.0929C29.4376 28.7059 29.0963 29.3057 28.7693 29.9054C28.7266 29.9987 28.6697 30.0653 28.5987 30.1453C28.5418 30.2252 28.4565 30.2519 28.3427 30.2119C28.2858 30.1986 28.229 30.1719 28.1721 30.1453C28.0157 30.052 27.9446 29.932 27.9873 29.7721C28.0583 29.5722 28.1152 29.3723 28.1863 29.1724C28.5276 28.3461 28.9541 27.5598 29.4233 26.8002C29.4518 26.7335 29.4802 26.6802 29.5229 26.6269C29.5087 26.6136 29.5087 26.6136 29.4944 26.6002ZM23.096 25.1476C23.1387 25.1476 23.1529 25.1609 23.1671 25.1609C23.5084 25.1476 23.8212 25.0943 24.1198 24.9477C24.2335 24.8944 24.333 24.8277 24.4184 24.7344C24.5321 24.5878 24.5605 24.4279 24.461 24.2547C24.4184 24.188 24.3615 24.148 24.2762 24.148C24.0913 24.1347 23.9207 24.1747 23.7643 24.268C23.6079 24.3613 23.4941 24.4812 23.3946 24.6145C23.2666 24.7744 23.1671 24.9477 23.096 25.1476ZM27.8166 26.507C27.8166 26.2937 27.7598 26.0938 27.6033 25.9339C27.5749 25.9072 27.5607 25.8939 27.5323 25.8806C27.4185 25.8273 27.3474 25.8539 27.3474 25.9739C27.3332 26.1205 27.4043 26.2404 27.5038 26.3604C27.5749 26.4536 27.6744 26.4936 27.8166 26.507Z" fill="#EFB54F"/>
</g>
</g>
</g>
</g>
<mask id="mask78_381_3899" style="mask-type:luminance" maskUnits="userSpaceOnUse" x="29" y="23" width="4" height="5">
<path d="M29.1211 23.8818H32.7611V27.2936H29.1211V23.8818Z" fill="white"/>
</mask>
<g mask="url(#mask78_381_3899)">
<mask id="mask79_381_3899" style="mask-type:luminance" maskUnits="userSpaceOnUse" x="14" y="18" width="28" height="21">
<path d="M20.0959 18.8174L41.1965 29.879L35.9498 38.6749L14.835 27.6L20.0959 18.8174Z" fill="white"/>
</mask>
<g mask="url(#mask79_381_3899)">
<mask id="mask80_381_3899" style="mask-type:luminance" maskUnits="userSpaceOnUse" x="14" y="18" width="28" height="21">
<path d="M20.0969 18.8174L41.1974 29.879L35.9507 38.6749L14.8359 27.6L20.0969 18.8174Z" fill="white"/>
</mask>
<g mask="url(#mask80_381_3899)">
<mask id="mask81_381_3899" style="mask-type:luminance" maskUnits="userSpaceOnUse" x="14" y="18" width="28" height="21">
<path d="M20.0978 18.8174L41.1984 29.879L35.9517 38.6749L14.8369 27.6L20.0978 18.8174Z" fill="white"/>
</mask>
<g mask="url(#mask81_381_3899)">
<path d="M30.179 25.0144C30.2075 24.9744 30.2359 24.9344 30.2786 24.9078C30.634 24.5879 31.1886 24.8678 31.1459 25.3476C31.0606 26.0672 29.852 25.5741 30.179 25.0144Z" fill="#EFB54F"/>
</g>
</g>
</g>
</g>
<mask id="mask82_381_3899" style="mask-type:luminance" maskUnits="userSpaceOnUse" x="36" y="30" width="5" height="8">
<path d="M36.4023 30.7056H40.0423V37.5291H36.4023V30.7056Z" fill="white"/>
</mask>
<g mask="url(#mask82_381_3899)">
<mask id="mask83_381_3899" style="mask-type:luminance" maskUnits="userSpaceOnUse" x="14" y="18" width="28" height="21">
<path d="M20.0959 18.8174L41.1965 29.879L35.9498 38.6749L14.835 27.6L20.0959 18.8174Z" fill="white"/>
</mask>
<g mask="url(#mask83_381_3899)">
<mask id="mask84_381_3899" style="mask-type:luminance" maskUnits="userSpaceOnUse" x="14" y="18" width="28" height="21">
<path d="M20.0969 18.8174L41.1974 29.879L35.9507 38.6749L14.8359 27.6L20.0969 18.8174Z" fill="white"/>
</mask>
<g mask="url(#mask84_381_3899)">
<mask id="mask85_381_3899" style="mask-type:luminance" maskUnits="userSpaceOnUse" x="14" y="18" width="28" height="21">
<path d="M20.0978 18.8174L41.1984 29.879L35.9517 38.6749L14.8369 27.6L20.0978 18.8174Z" fill="white"/>
</mask>
<g mask="url(#mask85_381_3899)">
<path d="M39.7036 32.2645C39.3766 32.6909 39.0211 33.1041 38.623 33.4906C38.2391 33.8637 37.8125 34.2102 37.4002 34.5568C37.3149 34.65 37.4571 34.77 37.5566 34.7034C37.9974 34.3702 38.3955 33.957 38.751 33.5439C39.1207 33.1441 39.4477 32.7176 39.7605 32.2911C39.7747 32.2645 39.7178 32.2245 39.7036 32.2645Z" fill="#9D9D9C"/>
</g>
</g>
</g>
</g>
<mask id="mask86_381_3899" style="mask-type:luminance" maskUnits="userSpaceOnUse" x="18" y="17" width="4" height="7">
<path d="M18.2012 17.0581H21.8412V23.8816H18.2012V17.0581Z" fill="white"/>
</mask>
<g mask="url(#mask86_381_3899)">
<mask id="mask87_381_3899" style="mask-type:luminance" maskUnits="userSpaceOnUse" x="14" y="18" width="28" height="21">
<path d="M20.0959 18.8174L41.1965 29.879L35.9498 38.6749L14.835 27.6L20.0959 18.8174Z" fill="white"/>
</mask>
<g mask="url(#mask87_381_3899)">
<mask id="mask88_381_3899" style="mask-type:luminance" maskUnits="userSpaceOnUse" x="14" y="18" width="28" height="21">
<path d="M20.0969 18.8174L41.1974 29.879L35.9507 38.6749L14.8359 27.6L20.0969 18.8174Z" fill="white"/>
</mask>
<g mask="url(#mask88_381_3899)">
<mask id="mask89_381_3899" style="mask-type:luminance" maskUnits="userSpaceOnUse" x="14" y="18" width="28" height="21">
<path d="M20.0978 18.8174L41.1984 29.879L35.9517 38.6749L14.8369 27.6L20.0978 18.8174Z" fill="white"/>
</mask>
<g mask="url(#mask89_381_3899)">
<path d="M19.4005 20.0438C19.1019 20.7102 18.8033 21.3765 18.5474 22.0695C18.5189 22.1495 18.6753 22.2161 18.718 22.1362C19.0166 21.4698 19.2725 20.7768 19.5427 20.0971C19.5569 20.0305 19.4289 19.9772 19.4005 20.0438Z" fill="#9D9D9C"/>
</g>
</g>
</g>
</g>
<mask id="mask90_381_3899" style="mask-type:luminance" maskUnits="userSpaceOnUse" x="21" y="30" width="5" height="5">
<path d="M21.8398 30.7056H25.4798V34.1173H21.8398V30.7056Z" fill="white"/>
</mask>
<g mask="url(#mask90_381_3899)">
<mask id="mask91_381_3899" style="mask-type:luminance" maskUnits="userSpaceOnUse" x="14" y="18" width="28" height="21">
<path d="M20.0959 18.8174L41.1965 29.879L35.9498 38.6749L14.835 27.6L20.0959 18.8174Z" fill="white"/>
</mask>
<g mask="url(#mask91_381_3899)">
<mask id="mask92_381_3899" style="mask-type:luminance" maskUnits="userSpaceOnUse" x="14" y="18" width="28" height="21">
<path d="M20.0969 18.8174L41.1974 29.879L35.9507 38.6749L14.8359 27.6L20.0969 18.8174Z" fill="white"/>
</mask>
<g mask="url(#mask92_381_3899)">
<mask id="mask93_381_3899" style="mask-type:luminance" maskUnits="userSpaceOnUse" x="14" y="18" width="28" height="21">
<path d="M20.0978 18.8174L41.1984 29.879L35.9517 38.6749L14.8369 27.6L20.0978 18.8174Z" fill="white"/>
</mask>
<g mask="url(#mask93_381_3899)">
<path d="M24.0362 31.3043C24.2352 31.5042 24.6049 31.6775 24.9035 31.6508C25.1452 31.6375 25.458 31.5042 25.4438 31.251C25.4438 31.1711 25.3159 31.1311 25.2732 31.1977C25.2163 31.2777 25.1879 31.3576 25.1026 31.4109C25.0173 31.4642 24.9035 31.4776 24.7898 31.4776C24.5196 31.4509 24.3205 31.291 24.0788 31.211C24.0219 31.1977 23.9935 31.2643 24.0362 31.3043Z" fill="#9D9D9C"/>
</g>
</g>
</g>
</g>
<mask id="mask94_381_3899" style="mask-type:luminance" maskUnits="userSpaceOnUse" x="29" y="27" width="8" height="8">
<path d="M29.1211 27.293H36.4011V34.1165H29.1211V27.293Z" fill="white"/>
</mask>
<g mask="url(#mask94_381_3899)">
<mask id="mask95_381_3899" style="mask-type:luminance" maskUnits="userSpaceOnUse" x="14" y="18" width="28" height="21">
<path d="M20.0959 18.8174L41.1965 29.879L35.9498 38.6749L14.835 27.6L20.0959 18.8174Z" fill="white"/>
</mask>
<g mask="url(#mask95_381_3899)">
<mask id="mask96_381_3899" style="mask-type:luminance" maskUnits="userSpaceOnUse" x="14" y="18" width="28" height="21">
<path d="M20.0969 18.8174L41.1974 29.879L35.9507 38.6749L14.8359 27.6L20.0969 18.8174Z" fill="white"/>
</mask>
<g mask="url(#mask96_381_3899)">
<mask id="mask97_381_3899" style="mask-type:luminance" maskUnits="userSpaceOnUse" x="14" y="18" width="28" height="21">
<path d="M20.0978 18.8174L41.1984 29.879L35.9517 38.6749L14.8369 27.6L20.0978 18.8174Z" fill="white"/>
</mask>
<g mask="url(#mask97_381_3899)">
<path d="M29.5675 30.4788C29.3684 30.8653 29.5959 31.3184 29.994 31.585C30.4632 31.9048 31.1031 31.8648 31.615 31.7316C31.5581 31.6916 31.5154 31.6516 31.4728 31.6116C31.3164 32.2247 31.4301 32.9444 31.9704 33.4241C32.4539 33.8506 33.2785 34.0372 33.8189 33.6773C33.9326 33.5974 33.7762 33.4375 33.6482 33.4908C33.1648 33.704 32.5392 33.5974 32.1268 33.2242C31.6718 32.8244 31.5439 32.1847 31.6861 31.6649C31.7145 31.585 31.6292 31.5183 31.5439 31.5317C31.1173 31.6383 30.5912 31.6916 30.1646 31.465C29.8092 31.2651 29.539 30.8653 29.6386 30.5055C29.6528 30.4655 29.5817 30.4255 29.5675 30.4788Z" fill="#9D9D9C"/>
</g>
</g>
</g>
</g>
<path d="M10.2959 47.1382L20.4196 52.4557" stroke="black" stroke-width="0.984376" stroke-linecap="round"/>
<path d="M57.5823 28.8129V25.0813C57.6107 22.4958 58.2648 20.4167 59.516 18.8441C60.7957 17.2848 62.5873 16.4985 64.8623 16.4985C65.8434 16.4985 66.7676 16.6451 67.6492 16.925C68.5165 17.1782 69.1421 17.4448 69.526 17.7246L70.1516 18.0978L67.9335 22.3092C67.3221 21.9893 66.6823 21.8294 65.9998 21.8294C65.2035 21.8294 64.6632 22.096 64.4073 22.6291C64.1371 23.1355 64.0092 24.0151 64.0092 25.2945V28.8129H68.2748V33.3974H64.0092V46.1916H57.5823V33.3974H54.9092V28.8129H57.5823Z" fill="#98BB9A"/>
<path d="M89.2077 38.3018H75.7852C75.7852 39.5546 76.1976 40.4742 77.0365 41.0739C77.8612 41.647 78.7711 41.9268 79.7665 41.9268C80.8186 41.9268 81.6433 41.8069 82.2121 41.5537C82.8093 41.2738 83.5202 40.754 84.3165 40.0077L88.9233 42.1401C86.9896 45.2053 83.7761 46.7246 79.3115 46.7246C76.4962 46.7246 74.0932 45.8184 72.0884 44.0059C70.112 42.1934 69.1309 40.0344 69.1309 37.5022C69.1309 34.9834 70.112 32.811 72.0884 30.9985C74.0932 29.186 76.4962 28.2798 79.3115 28.2798C82.269 28.2798 84.6577 29.0794 86.4777 30.6787C88.3261 32.2779 89.2646 34.5569 89.2646 37.5022C89.2646 37.9287 89.2361 38.1952 89.2077 38.3018ZM75.9558 34.9967H83.0083C82.8519 34.1171 82.468 33.4241 81.8708 32.9177C81.2594 32.4245 80.4632 32.1713 79.4821 32.1713C78.4157 32.1713 77.5626 32.4379 76.9227 32.971C76.3113 33.504 75.9843 34.1837 75.9558 34.9967Z" fill="#98BB9A"/>
<path d="M111.394 38.3018H97.9717C97.9717 39.5546 98.3841 40.4742 99.223 41.0739C100.048 41.647 100.958 41.9268 101.953 41.9268C103.005 41.9268 103.83 41.8069 104.399 41.5537C104.996 41.2738 105.707 40.754 106.503 40.0077L111.11 42.1401C109.176 45.2053 105.963 46.7246 101.498 46.7246C98.6827 46.7246 96.2797 45.8184 94.2749 44.0059C92.2985 42.1934 91.3174 40.0344 91.3174 37.5022C91.3174 34.9834 92.2985 32.811 94.2749 30.9985C96.2797 29.186 98.6827 28.2798 101.498 28.2798C104.455 28.2798 106.844 29.0794 108.664 30.6787C110.513 32.2779 111.451 34.5569 111.451 37.5022C111.451 37.9287 111.423 38.1952 111.394 38.3018ZM98.1424 34.9967H105.195C105.038 34.1171 104.655 33.4241 104.057 32.9177C103.446 32.4245 102.65 32.1713 101.669 32.1713C100.602 32.1713 99.7491 32.4379 99.1092 32.971C98.4978 33.504 98.1708 34.1837 98.1424 34.9967Z" fill="#98BB9A"/>
<path d="M116.058 44.0574C114.352 42.2848 113.499 40.1125 113.499 37.5537C113.499 34.9682 114.352 32.7825 116.058 30.9967C117.793 29.1842 120.011 28.2779 122.713 28.2779C125.173 28.2779 127.206 29.0109 128.798 30.4636V17.0298H135.168V46.1897H128.855V44.2173H128.798C127.206 45.8965 125.173 46.7228 122.713 46.7228C120.011 46.7228 117.793 45.8432 116.058 44.0574ZM121.518 34.5684C120.679 35.3147 120.267 36.3009 120.267 37.5004C120.267 38.7132 120.665 39.7127 121.462 40.4857C122.258 41.232 123.31 41.6052 124.646 41.6052C125.898 41.6052 126.921 41.2187 127.718 40.4324C128.514 39.6594 128.912 38.6732 128.912 37.5004C128.912 36.3009 128.486 35.3147 127.661 34.5684C126.822 33.7954 125.812 33.3956 124.646 33.3956C123.395 33.3956 122.343 33.7954 121.518 34.5684Z" fill="#98BB9A"/>
<path d="M140.516 19.1106C141.27 18.4043 142.166 18.0444 143.19 18.0444C144.213 18.0444 145.095 18.4043 145.863 19.1106C146.616 19.8303 147 20.6566 147 21.6161C147 22.5757 146.616 23.4153 145.863 24.1216C145.095 24.8413 144.213 25.1878 143.19 25.1878C142.166 25.1878 141.27 24.8413 140.516 24.1216C139.749 23.4153 139.379 22.5757 139.379 21.6161C139.379 20.6566 139.749 19.8303 140.516 19.1106ZM139.891 28.8128V46.1915H146.318V28.8128H139.891Z" fill="#98BB9A"/>
</svg>
